<svg xmlns="http://www.w3.org/2000/svg" width="1280" height="420" viewBox="0 0 1280 420" role="img" aria-labelledby="title desc">
  <title id="title">BrainBIP</title>
  <desc id="desc">A passphrase. Twelve words. Four chains. An offline-first experiment in deterministic wallet recovery.</desc>
  <rect width="1280" height="420" rx="24" fill="#f5f3eb"/>
  <g fill="none" stroke="#d9d8ce" stroke-width="1">
    <path d="M0 340H1280M870 0V420M1120 0V420"/>
    <circle cx="997" cy="205" r="136"/><circle cx="997" cy="205" r="95"/>
    <path d="M808 205H1190M997 25V385"/>
  </g>
  <rect x="70" y="52" width="178" height="29" rx="14.5" fill="#d9f7a4"/>
  <text x="159" y="71" text-anchor="middle" fill="#242b20" font-family="monospace" font-size="12" letter-spacing="1.4">MEMORY → MNEMONIC</text>
  <text x="64" y="195" fill="#20261f" font-family="Arial, Helvetica, sans-serif" font-size="108" font-weight="700" letter-spacing="-6">BrainBIP<tspan fill="#739b45">.</tspan></text>
  <text x="71" y="250" fill="#303b2e" font-family="Arial, Helvetica, sans-serif" font-size="28">A passphrase. Twelve words. Four chains.</text>
  <text x="72" y="294" fill="#72766c" font-family="Arial, Helvetica, sans-serif" font-size="17">An offline-first experiment in deterministic wallet recovery.</text>
  <g transform="translate(944 152)" fill="#bdff61" stroke="#20261f" stroke-width="2">
    <rect width="106" height="106" rx="25" transform="rotate(45 53 53)"/>
    <path d="M28 54h50M53 29v50" stroke-width="5"/>
    <circle cx="28" cy="54" r="5" fill="#20261f"/><circle cx="78" cy="54" r="5" fill="#20261f"/>
    <circle cx="53" cy="29" r="5" fill="#20261f"/><circle cx="53" cy="79" r="5" fill="#20261f"/>
  </g>
  <text x="72" y="384" fill="#667060" font-family="monospace" font-size="14" letter-spacing="1.1">ARGON2ID + PBKDF2</text>
  <text x="460" y="384" fill="#667060" font-family="monospace" font-size="14" letter-spacing="1.1">ONE HTML FILE</text>
  <text x="924" y="384" fill="#667060" font-family="monospace" font-size="14" letter-spacing="1.1">MIT LICENSE</text>
</svg>
